<?xml version="1.0" encoding="UTF-8"?>
<svg width="512" height="512" viewBox="0 0 512 512" xmlns="http://www.w3.org/2000/svg">
  <defs>
    <linearGradient id="grad1" x1="0%" y1="0%" x2="100%" y2="100%">
      <stop offset="0%" style="stop-color:#6b46c1;stop-opacity:1" />
      <stop offset="100%" style="stop-color:#9f7aea;stop-opacity:1" />
    </linearGradient>
  </defs>
  
  <rect width="512" height="512" rx="80" fill="url(#grad1)" />
  
  <g fill="#ffffff">
    <!-- E letter -->
    <path d="M140 140 L140 372 L260 372 L260 340 L180 340 L180 270 L240 270 L240 238 L180 238 L180 172 L260 172 L260 140 Z" />
    
    <!-- T letter -->
    <path d="M320 140 L320 172 L290 172 L290 372 L250 372 L250 172 L220 172 L220 140 Z" />
  </g>
  
  <!-- Code brackets -->
  <path d="M110 200 L80 256 L110 312" stroke="#ffffff" stroke-width="16" fill="none" stroke-linecap="round" stroke-linejoin="round" />
  <path d="M402 200 L432 256 L402 312" stroke="#ffffff" stroke-width="16" fill="none" stroke-linecap="round" stroke-linejoin="round" />
</svg>
